<svg width="160" height="127" viewBox="0 0 160 127" fill="none" xmlns="http://www.w3.org/2000/svg">
    <path
        d="M155.4 50.3333C155.16 51.52 154.947 52.72 154.573 53.8666C153.827 56.1466 152.893 58.32 151.293 60.16C151.04 60.4533 150.76 60.6666 150.4 60.7866C148.8 61.3333 147.133 61.5866 145.453 61.7333C144.533 61.8133 143.613 61.8266 142.707 61.8266C142.373 61.8266 142.253 61.72 142.307 61.3866C142.533 60.0533 142.72 58.7066 143.053 57.4C143.293 56.4533 143.92 55.84 144.8 55.4666C145.813 55.04 146.6 54.3466 146.933 53.3066C147.773 50.68 147.613 48.12 146.24 45.6933C145.853 45.0133 145.307 44.48 144.52 44.28C143.48 44.0133 142.653 44.48 141.947 45.16C140.427 46.64 139.547 48.4666 139.24 50.5733C139.107 51.48 139.053 52.36 139.413 53.24C139.64 53.8133 139.96 54.3333 140.453 54.7066C141.427 55.4533 141.8 56.4266 141.667 57.6133C141.52 58.8266 141.347 60.0533 141.187 61.2666C141.147 61.5333 141.067 61.7466 140.72 61.7066C138.413 61.4666 136.2 60.9466 134.293 59.5333C132.68 58.3333 131.733 56.68 131.373 54.7466C130.693 51.0533 131.107 47.4666 132.773 44.0666C133.187 43.2266 133.747 42.48 134.32 41.7333C134.453 41.5466 134.64 41.44 134.853 41.3733C137.027 40.68 139.267 40.28 141.533 40.1066C143.413 39.96 145.293 39.92 147.16 40.2933C148.88 40.64 150.547 41.16 152.013 42.16C153.853 43.4266 154.933 45.1733 155.32 47.3733C155.347 47.5066 155.373 47.64 155.413 47.7866C155.4 48.6533 155.4 49.4933 155.4 50.3333Z"
        fill="#009838" />
    <path
        d="M74.2401 25.1337C75.1601 25.6671 75.0668 26.5337 75.0001 27.4004C74.5868 32.3204 74.7068 37.2537 74.7334 42.1737C74.7601 45.8138 74.9334 49.4404 75.1068 53.0804C75.1068 53.2004 75.1601 53.3338 75.1468 53.4538C75.0134 54.2938 75.4935 54.6004 76.2268 54.7204C76.6668 54.8004 77.0935 54.9738 77.5201 55.1071C77.6535 55.1471 77.8268 55.1738 77.8535 55.3338C77.9201 55.8538 77.8668 56.3604 77.6935 56.8404C77.5601 57.1871 77.1868 57.1738 76.8801 57.2004C75.6001 57.3071 74.3201 57.2938 73.0535 57.2004C71.4268 57.0938 69.8134 57.2138 68.2001 57.2938C66.6934 57.3604 65.1868 57.4538 63.6801 57.5471C63.4401 57.5604 63.3468 57.4404 63.2801 57.2404C63.1468 56.8271 63.0934 56.3871 63.0268 55.9604C62.9868 55.6938 63.1068 55.5604 63.3601 55.4938C63.8934 55.3738 64.4134 55.2271 64.9468 55.0938C65.2134 55.0271 65.3468 54.9071 65.3601 54.6271C65.4801 52.5871 65.4401 50.5604 65.3868 48.5204C65.3734 48.2404 65.3601 47.9604 65.3601 47.6804C65.3468 44.8404 65.2401 41.9871 65.0534 39.1471C64.8534 35.9604 64.6401 32.7604 64.1468 29.5871C64.0801 29.1604 63.9068 28.9604 63.4801 28.8938C63.0534 28.8271 62.6268 28.6937 62.2001 28.6004C61.9068 28.5337 61.7601 28.3871 61.7868 28.0804C61.7868 28.0004 61.7868 27.9204 61.8001 27.8537C61.9068 26.6404 61.9201 26.6404 63.1201 26.4804C66.6534 26.0137 70.1868 25.5604 73.7334 25.1604C73.8134 25.1471 73.8801 25.1204 73.9601 25.0938C74.0401 25.1338 74.1334 25.1337 74.2401 25.1337Z"
        fill="#009838" />
    <path
        d="M82.6001 63.2401C80.7467 63.2401 78.8934 63.2135 77.0401 63.2401C74.0001 63.2801 70.9601 63.3468 67.9334 63.4268C65.2667 63.4935 62.6134 63.5735 59.9467 63.7068C56.1734 63.8935 52.3867 64.0934 48.6267 64.4134C44.2667 64.7734 39.9201 65.2801 35.6001 65.9468C34.0401 66.1868 32.4934 66.4535 30.9467 66.6935C30.1601 66.8135 29.5867 66.4935 29.2267 65.7735C27.4134 62.1601 25.6267 58.5201 24.1067 54.7735C23.6401 53.6135 23.0667 52.5068 22.4667 51.4134C22.3067 51.1334 22.1067 51.0001 21.8001 50.9868C21.3601 50.9868 20.9334 50.9735 20.4934 50.9601C19.9334 50.9601 19.9201 50.9735 20.0534 51.5068C20.5867 53.6801 21.1201 55.8535 21.6667 58.0268C21.8667 58.8535 22.0667 59.6935 22.2667 60.5201C22.4134 61.1335 22.4134 61.1335 21.8001 61.2268C19.5601 61.5601 17.3334 61.9201 15.1201 62.3468C13.8801 62.5868 12.6401 62.8134 11.4001 63.0801C11.0001 63.1601 10.7734 63.0934 10.6267 62.6801C10.1201 61.3068 10.1067 61.3068 11.4667 60.7735C12.3734 60.4135 12.4134 60.4135 12.3067 59.4401C12.0401 56.9335 11.6267 54.4535 11.1867 51.9735C10.2534 46.7335 9.34672 41.4934 8.30672 36.2801C8.04006 34.9468 8.04006 34.9468 6.70672 34.8001C6.18672 34.7468 5.65339 34.6668 5.13339 34.6268C4.86672 34.6001 4.74672 34.4801 4.70672 34.2268C4.64006 33.8135 4.73339 33.4135 4.78672 33.0268C4.82672 32.7601 5.09339 32.7335 5.29339 32.6801C7.65339 32.0401 10.0134 31.4001 12.3734 30.7601C13.3334 30.5068 14.3067 30.2801 15.2667 30.0001C15.6801 29.8801 16.0401 29.9201 16.4267 30.1201C17.6801 30.7735 17.6534 30.7734 17.7867 32.1734C18.0267 34.6001 18.3067 37.0268 18.5734 39.4535C18.8401 41.8535 19.0934 44.2401 19.3601 46.6401C19.4267 47.2134 19.4934 47.7868 19.5467 48.3601C19.5734 48.6001 19.6534 48.6801 19.9067 48.6401C20.4267 48.5468 20.9467 48.4801 21.4801 48.4268C21.7867 48.4001 21.9201 48.2401 21.9467 47.9468C22.1067 46.3734 22.2667 44.7868 22.4134 43.2134C22.6134 41.1601 22.8134 39.0934 23.0134 37.0401C23.0667 36.4268 23.1467 35.8001 23.1601 35.1868C23.1734 34.7601 23.3467 34.5868 23.7601 34.5201C26.3601 34.1201 28.9601 33.7068 31.5601 33.2935C32.2801 33.1735 33.0134 33.0935 33.7334 32.9601C34.0401 32.9068 34.1867 33.0135 34.3067 33.2935C34.8401 34.5868 34.8267 34.7735 33.5334 35.2668C32.6134 35.6135 32.2534 36.1868 32.0534 37.1068C31.2267 40.8534 30.3334 44.6001 29.4534 48.3335C29.3867 48.6401 29.4001 48.8535 29.7467 48.9201C29.9601 48.9601 30.0801 49.1335 30.2134 49.2935C31.2401 50.5201 31.9601 51.9335 32.8667 53.2401C34.6801 55.8535 36.0401 58.7068 37.5334 61.4801C37.6267 61.6534 37.7467 61.8268 37.8267 62.0134C38.0534 62.4801 38.4267 62.6668 38.9334 62.6268C40.2267 62.5201 41.5067 62.4135 42.8001 62.3068C44.5334 62.1601 46.2801 62.0134 48.0134 61.8801C50.1601 61.7201 52.2934 61.5735 54.4401 61.4401C55.7334 61.3601 57.0267 61.2935 58.3067 61.2268C62.2134 61.0668 66.1201 60.9068 70.0267 60.8268C75.8801 60.6935 81.7467 60.7468 87.6001 60.7868C89.6401 60.8001 91.6801 60.8668 93.7201 60.9601C97.2401 61.1201 100.747 61.2268 104.267 61.4801C106.747 61.6534 109.24 61.7868 111.72 61.9735C114.053 62.1468 116.373 62.3735 118.693 62.6001C121.24 62.8401 123.773 63.0935 126.307 63.3735C129.107 63.6935 131.907 64.0401 134.693 64.4134C138.813 64.9601 142.92 65.5735 147.027 66.2535C148.227 66.4535 149.427 66.6535 150.613 66.8668C151.267 66.9868 151.547 67.3068 151.467 67.8135C151.347 68.5201 151.013 68.8001 150.307 68.6935C147.72 68.3201 145.133 67.9201 142.547 67.5468C139.16 67.0535 135.773 66.5601 132.36 66.1868C129.067 65.8135 125.773 65.4401 122.467 65.1068C120.173 64.8801 117.88 64.6935 115.587 64.5201C112.64 64.2935 109.693 64.0935 106.733 63.8935C105.48 63.8135 104.213 63.7468 102.96 63.6935C98.7067 63.5201 94.4667 63.3601 90.2134 63.2801C87.6801 63.2401 85.1467 63.2801 82.6001 63.2401Z"
        fill="#009838" />
    <path
        d="M102.8 57.6269C100.147 57.5603 97.5068 57.4936 94.8535 57.4403C94.2001 57.4269 93.8135 56.9203 93.3335 56.5869C93.1735 56.4669 93.3068 56.2669 93.3601 56.1069C93.8268 54.6536 94.2801 53.2003 94.7468 51.7469C94.8268 51.5069 94.9468 51.2936 94.5735 51.1469C94.2268 51.0136 94.1068 51.1603 93.9735 51.4269C93.1735 53.0936 92.3335 54.7469 91.5468 56.4269C91.2935 56.9603 90.9468 57.2669 90.3468 57.3069C89.0935 57.4136 87.8401 57.5736 86.5735 57.5336C86.0135 57.5203 85.5201 57.2536 85.0268 57.0269C81.8668 55.6536 80.1868 53.1469 79.5468 49.8403C78.7468 45.7069 79.8535 42.0936 82.5201 38.8936C83.5868 37.6136 84.8268 36.5336 86.2268 35.6269C86.4935 35.4536 86.7735 35.3603 87.1068 35.3603C89.0801 35.3736 91.0535 35.5069 93.0268 35.7069C93.3335 35.7336 93.6001 35.7603 93.5735 35.3203C93.4801 33.3736 93.4001 31.4403 93.3335 29.4936C93.3201 29.0803 93.1201 28.9336 92.7468 28.8536C91.9601 28.6936 91.1735 28.4803 90.3735 28.3203C90.0001 28.2403 89.8668 28.0536 89.9468 27.6936C89.9601 27.6003 89.9868 27.5069 90.0001 27.4136C90.1735 26.3336 90.1735 26.3469 91.2268 26.2803C94.1868 26.0803 97.1601 25.8669 100.12 25.6536C100.72 25.6136 101.333 25.6136 101.933 25.5469C102.4 25.4936 102.707 25.7603 103.067 25.9736C103.88 26.4536 104.04 27.0536 103.893 27.9736C103.467 30.7603 103.28 33.5603 103.107 36.3736C102.867 40.2403 102.693 44.1069 102.613 47.9736C102.573 50.1069 102.6 52.2269 102.653 54.3603C102.667 54.8936 102.827 55.2403 103.4 55.3603C103.733 55.4269 104.04 55.6003 104.373 55.6936C104.76 55.7869 104.867 56.0136 104.813 56.3869C104.6 57.7203 104.947 57.5869 103.533 57.5869C103.293 57.6269 103.04 57.6269 102.8 57.6269ZM89.2935 47.5336C89.2801 49.2669 89.3468 50.9869 89.6135 52.6936C89.6401 52.8936 89.6401 53.1603 89.9335 53.1869C90.2268 53.2269 90.5335 53.2403 90.7068 52.9069C90.8135 52.7069 90.9468 52.5069 91.0535 52.2936C91.6001 51.2269 92.0801 50.1336 92.6001 49.0536C93.0801 48.0536 93.3335 47.0403 93.3201 45.9069C93.2935 44.1869 93.3601 42.4536 93.4268 40.7336C93.5068 38.7869 93.8135 38.9203 91.7601 38.2003C90.2001 37.6536 90.3335 37.5869 89.9735 39.2269C89.3868 41.9736 89.3201 44.7603 89.2935 47.5336Z"
        fill="#009838" />
    <path
        d="M51.5599 36.4936C53.0399 36.4269 54.8133 36.6002 56.4933 37.3469C57.6266 37.8536 58.5066 38.6402 59.1866 39.6536C59.3066 39.8269 59.3599 40.0136 59.3466 40.2269C59.1599 43.3469 59.2266 46.4669 59.4533 49.5869C59.5733 51.2936 59.7733 52.9869 60.1199 54.6669C60.1866 55.0269 60.3333 55.2136 60.7066 55.2802C61.1466 55.3602 61.5866 55.4802 62.0266 55.5869C62.2666 55.6402 62.3866 55.7736 62.3999 56.0402C62.4799 57.3336 62.4799 57.3602 61.1733 57.4669C59.5333 57.6002 57.8799 57.6936 56.2399 57.8269C55.1333 57.9202 54.0266 57.9736 52.9466 58.1602C52.1733 58.2936 51.6266 57.9336 51.0533 57.5736C50.8266 57.4269 50.9466 57.2002 50.9866 57.0136C51.2933 55.5469 51.5999 54.0936 51.9066 52.6269C51.9599 52.3602 52.0533 52.1202 51.6666 51.9869C51.2533 51.8536 51.1866 52.1469 51.0933 52.4002C50.4266 54.1602 49.7466 55.9202 49.0933 57.6802C48.9466 58.0802 48.7066 58.3069 48.2799 58.4269C47.2266 58.7202 46.1733 58.9736 45.0799 59.0936C42.2933 59.3736 38.8133 57.5602 37.9733 54.5869C37.8533 54.1602 37.7999 53.7336 37.9199 53.3069C38.2933 51.9869 38.7999 50.7202 39.4399 49.5069C39.6399 49.1336 39.9199 48.8802 40.3066 48.7069C42.6399 47.7336 45.0133 46.8936 47.4399 46.2002C48.0533 46.0269 48.6799 45.8669 49.2933 45.7336C49.5999 45.6669 49.7066 45.5202 49.6799 45.2136C49.5199 43.3202 49.3733 41.4402 49.2399 39.5469C49.2133 39.2536 49.0933 39.1469 48.8133 39.1336C48.1599 39.0936 47.5066 39.0402 46.8533 39.0536C46.1733 39.0669 46.1199 39.1336 46.0799 39.8002C45.9733 41.3469 45.8399 42.8936 45.7333 44.4536C45.7066 44.7869 45.5599 44.9069 45.2399 44.9336C43.6933 45.0536 42.1333 45.1869 40.5866 45.3336C40.2533 45.3602 40.1066 45.2802 40.0133 44.9602C39.5066 43.2402 38.9866 41.5336 38.4799 39.8136C38.3333 39.3069 38.8399 38.3602 39.3199 38.2269C43.2399 37.2002 47.1733 36.4802 51.5599 36.4936ZM49.9466 48.4936C49.9333 48.0802 49.7066 48.0936 49.4266 48.1602C48.5199 48.4002 47.6799 48.8002 46.8399 49.2269C46.6266 49.3336 46.5599 49.4802 46.5866 49.7202C46.6533 50.2136 46.6933 50.7069 46.7466 51.2002C46.8666 52.1602 47.0399 53.1069 47.2933 54.0402C47.3466 54.2269 47.3733 54.4136 47.6133 54.4402C47.8399 54.4536 47.9333 54.2936 48.0133 54.1202C48.0666 54.0136 48.1199 53.8936 48.1733 53.7869C48.7866 52.2402 49.3333 50.6669 49.7999 49.0802C49.8666 48.8536 49.9066 48.6536 49.9466 48.4936Z"
        fill="#009838" />
    <path
        d="M106.293 48.5072C106.373 46.2006 106.6 43.8139 107.693 41.6139C108.08 40.8272 108.547 40.0939 109.04 39.3739C109.16 39.2006 109.333 39.1072 109.533 39.0406C111.96 38.0939 114.48 37.5872 117.067 37.2539C119.32 36.9739 121.547 37.0539 123.747 37.6272C125.773 38.1606 127.573 39.0672 128.867 40.7606C129.867 42.0806 130.413 43.5872 130.453 45.2139C130.56 49.4272 129.44 53.2939 127.013 56.7606C126.76 57.1206 126.44 57.3472 126.04 57.5072C124.107 58.2672 122.093 58.6406 120.04 58.8539C119.533 58.9072 119.013 58.9472 118.507 58.9472C118.2 58.9472 118.08 58.8272 118.12 58.5206C118.28 57.2806 118.413 56.0539 118.573 54.8139C118.707 53.8939 119.107 53.0939 119.973 52.6672C121.573 51.8806 122.413 50.6272 122.547 48.8539C122.72 46.6672 122.4 44.6006 121.187 42.7339C121.133 42.6539 121.08 42.5739 121.027 42.5072C119.813 40.9472 118.12 40.8939 116.813 42.3739C115.16 44.2406 114.387 46.4539 114.4 48.9206C114.413 50.2006 114.88 51.2939 115.973 52.0539C117.147 52.8672 117.36 54.0406 117.253 55.3472C117.173 56.3872 117.067 57.4272 117.013 58.4672C116.987 58.8406 116.867 58.9739 116.48 58.9606C114.827 58.9206 113.227 58.6539 111.68 58.0406C109.067 57.0139 107.48 55.0672 106.773 52.3739C106.44 51.1472 106.32 49.8806 106.293 48.5072Z"
        fill="#009838" />
</svg>